<svg xmlns="http://www.w3.org/2000/svg" style="display:none"><symbol id="chevron-down" viewBox="0 0 52.03 28.51"><path d="M1.09 1.09a2 2 0 0 0 0 2.83l23.52 23.51a2 2 0 0 0 2.83 0L50.95 3.92a2 2 0 1 0-2.83-2.83L26 23.19 3.92 1.09a2 2 0 0 0-2.83 0z" fill="#010101"/></symbol><symbol id="chevron-left" viewBox="0 0 28.51 52.03"><path d="M27.43 1.09a2 2 0 0 0-2.83 0L1.09 24.61a2 2 0 0 0 0 2.83L24.6 50.95a2 2 0 1 0 2.83-2.83L5.33 26l22.1-22.1a2 2 0 0 0 0-2.83z" fill="#010101"/></symbol><symbol id="chevron-righ" viewBox="0 0 28.51 52.03"><path d="M1.09 50.95a2 2 0 0 0 2.83 0l23.51-23.52a2 2 0 0 0 0-2.83L3.92 1.09a2 2 0 1 0-2.83 2.83L23.19 26 1.09 48.12a2 2 0 0 0 0 2.83z" fill="#010101"/></symbol></svg>